# xmcd
#
# Track frame offsets: 
#        150
#        15237
#        28173
#        43924
#        57898
#        73240
#        88885
#        100403
#        109672
#        127958
#        140351
#        156164
#        168470
#        186150
#        201273
#        215017
#        231381
#        247683
#        265264
#
# Disc length: 3732 seconds
#
# Revision: 0
# Processed by: cddbd v1.5.1PL2 Copyright (c) Steve Scherf et al.
# Submitted via: ExactAudioCopy v0.95b4
#
DISCID=140e9213
DTITLE=Fausto Papetti - Isn`t it sexy?
DYEAR=2001
DGENRE=Blues
TTITLE0=Hill street Blues
TTITLE1=Sleepy shores
TTITLE2=Feelings
TTITLE3=Windmills of your mind
TTITLE4=Them from dynasty
TTITLE5=La mer
TTITLE6=Strangers in the night
TTITLE7=Laura
TTITLE8=My way
TTITLE9=Misty
TTITLE10=Concerto Nr.2
TTITLE11=Ode to Billy Joe
TTITLE12=Emotions
TTITLE13=Love in C.Minor
TTITLE14=Alexandra
TTITLE15=Europa
TTITLE16=Ancora Ancora Ancora
TTITLE17=Onyx
TTITLE18=Emmanuelle
EXTD=
EXTT0=
EXTT1=
EXTT2=
EXTT3=
EXTT4=
EXTT5=
EXTT6=
EXTT7=
EXTT8=
EXTT9=
EXTT10=
EXTT11=
EXTT12=
EXTT13=
EXTT14=
EXTT15=
EXTT16=
EXTT17=
EXTT18=
PLAYORDER=
